<svg width="720" height="71" viewBox="0 0 720 71" fill="none" xmlns="http://www.w3.org/2000/svg">
<path d="M0.810059 6.99991H23.0701C28.3901 6.99991 33.0801 8.02658 37.1401 10.0799C41.2467 12.0866 44.4201 14.9332 46.6601 18.6199C48.9467 22.3066 50.0901 26.5999 50.0901 31.4999C50.0901 36.3999 48.9467 40.6933 46.6601 44.3799C44.4201 48.0666 41.2467 50.9366 37.1401 52.9899C33.0801 54.9966 28.3901 55.9999 23.0701 55.9999H0.810059V6.99991ZM22.5101 46.6899C27.4101 46.6899 31.3067 45.3366 34.2001 42.6299C37.1401 39.8766 38.6101 36.1666 38.6101 31.4999C38.6101 26.8332 37.1401 23.1466 34.2001 20.4399C31.3067 17.6866 27.4101 16.3099 22.5101 16.3099H12.1501V46.6899H22.5101Z" fill="#090909"/>
<path d="M94.0621 37.3099C94.0621 37.4499 93.9921 38.4299 93.8521 40.2499H65.3621C65.8754 42.5832 67.0888 44.4266 69.0021 45.7799C70.9154 47.1332 73.2954 47.8099 76.1421 47.8099C78.1021 47.8099 79.8288 47.5299 81.3221 46.9699C82.8621 46.3633 84.2854 45.4299 85.5921 44.1699L91.4021 50.4699C87.8554 54.5299 82.6754 56.5599 75.8621 56.5599C71.6154 56.5599 67.8588 55.7433 64.5921 54.1099C61.3254 52.4299 58.8054 50.1199 57.0321 47.1799C55.2588 44.2399 54.3721 40.9032 54.3721 37.1699C54.3721 33.4832 55.2354 30.1699 56.9621 27.2299C58.7354 24.2432 61.1388 21.9332 64.1721 20.2999C67.2521 18.6199 70.6821 17.7799 74.4621 17.7799C78.1488 17.7799 81.4854 18.5732 84.4721 20.1599C87.4588 21.7466 89.7921 24.0332 91.4721 27.0199C93.1988 29.9599 94.0621 33.3899 94.0621 37.3099ZM74.5321 26.0399C72.0588 26.0399 69.9821 26.7399 68.3021 28.1399C66.6221 29.5399 65.5954 31.4532 65.2221 33.8799H83.7721C83.3988 31.4999 82.3721 29.6099 80.6921 28.2099C79.0121 26.7632 76.9588 26.0399 74.5321 26.0399Z" fill="#090909"/>
<path d="M113.302 56.5599C110.176 56.5599 107.119 56.1866 104.132 55.4399C101.146 54.6466 98.7656 53.6666 96.9922 52.4999L100.632 44.6599C102.312 45.7332 104.342 46.6199 106.722 47.3199C109.102 47.9732 111.436 48.2999 113.722 48.2999C118.342 48.2999 120.652 47.1566 120.652 44.8699C120.652 43.7966 120.022 43.0266 118.762 42.5599C117.502 42.0933 115.566 41.6966 112.952 41.3699C109.872 40.9032 107.329 40.3666 105.322 39.7599C103.316 39.1532 101.566 38.0799 100.072 36.5399C98.6256 34.9999 97.9022 32.8066 97.9022 29.9599C97.9022 27.5799 98.5789 25.4799 99.9322 23.6599C101.332 21.7932 103.339 20.3466 105.952 19.3199C108.612 18.2932 111.739 17.7799 115.332 17.7799C117.992 17.7799 120.629 18.0832 123.242 18.6899C125.902 19.2499 128.096 20.0432 129.822 21.0699L126.182 28.8399C122.869 26.9732 119.252 26.0399 115.332 26.0399C112.999 26.0399 111.249 26.3666 110.082 27.0199C108.916 27.6732 108.332 28.5132 108.332 29.5399C108.332 30.7066 108.962 31.5232 110.222 31.9899C111.482 32.4566 113.489 32.8999 116.242 33.3199C119.322 33.8332 121.842 34.3932 123.802 34.9999C125.762 35.5599 127.466 36.6099 128.912 38.1499C130.359 39.6899 131.082 41.8366 131.082 44.5899C131.082 46.9232 130.382 48.9999 128.982 50.8199C127.582 52.6399 125.529 54.0632 122.822 55.0899C120.162 56.0699 116.989 56.5599 113.302 56.5599Z" fill="#090909"/>
<path d="M159.38 17.7799C162.88 17.7799 166.053 18.5966 168.9 20.2299C171.793 21.8166 174.056 24.0799 175.69 27.0199C177.323 29.9132 178.14 33.2966 178.14 37.1699C178.14 41.0432 177.323 44.4499 175.69 47.3899C174.056 50.2832 171.793 52.5466 168.9 54.1799C166.053 55.7666 162.88 56.5599 159.38 56.5599C154.573 56.5599 150.793 55.0432 148.04 52.0099V69.5799H137.12V18.3399H147.55V22.6799C150.256 19.4132 154.2 17.7799 159.38 17.7799ZM157.49 47.5999C160.29 47.5999 162.576 46.6666 164.35 44.7999C166.17 42.8866 167.08 40.3432 167.08 37.1699C167.08 33.9966 166.17 31.4766 164.35 29.6099C162.576 27.6966 160.29 26.7399 157.49 26.7399C154.69 26.7399 152.38 27.6966 150.56 29.6099C148.786 31.4766 147.9 33.9966 147.9 37.1699C147.9 40.3432 148.786 42.8866 150.56 44.7999C152.38 46.6666 154.69 47.5999 157.49 47.5999Z" fill="#090909"/>
<path d="M184.75 18.3399H195.67V55.9999H184.75V18.3399ZM190.21 13.0899C188.203 13.0899 186.57 12.5066 185.31 11.3399C184.05 10.1732 183.42 8.72658 183.42 6.99991C183.42 5.27325 184.05 3.82658 185.31 2.65991C186.57 1.49325 188.203 0.909912 190.21 0.909912C192.216 0.909912 193.85 1.46991 195.11 2.58992C196.37 3.70992 197 5.10991 197 6.78992C197 8.60991 196.37 10.1266 195.11 11.3399C193.85 12.5066 192.216 13.0899 190.21 13.0899Z" fill="#090909"/>
<path d="M229.395 54.1799C228.321 54.9732 226.991 55.5799 225.405 55.9999C223.865 56.3732 222.231 56.5599 220.505 56.5599C216.025 56.5599 212.548 55.4166 210.075 53.1299C207.648 50.8433 206.435 47.4832 206.435 43.0499V27.5799H200.625V19.1799H206.435V10.0099H217.355V19.1799H226.735V27.5799H217.355V42.9099C217.355 44.4966 217.751 45.7332 218.545 46.6199C219.385 47.4599 220.551 47.8799 222.045 47.8799C223.771 47.8799 225.241 47.4132 226.455 46.4799L229.395 54.1799Z" fill="#090909"/>
<path d="M270.552 37.3099C270.552 37.4499 270.482 38.4299 270.342 40.2499H241.852C242.366 42.5832 243.579 44.4266 245.492 45.7799C247.406 47.1332 249.786 47.8099 252.632 47.8099C254.592 47.8099 256.319 47.5299 257.812 46.9699C259.352 46.3633 260.776 45.4299 262.082 44.1699L267.892 50.4699C264.346 54.5299 259.166 56.5599 252.352 56.5599C248.106 56.5599 244.349 55.7433 241.082 54.1099C237.816 52.4299 235.296 50.1199 233.522 47.1799C231.749 44.2399 230.862 40.9032 230.862 37.1699C230.862 33.4832 231.726 30.1699 233.452 27.2299C235.226 24.2432 237.629 21.9332 240.662 20.2999C243.742 18.6199 247.172 17.7799 250.952 17.7799C254.639 17.7799 257.976 18.5732 260.962 20.1599C263.949 21.7466 266.282 24.0332 267.962 27.0199C269.689 29.9599 270.552 33.3899 270.552 37.3099ZM251.022 26.0399C248.549 26.0399 246.472 26.7399 244.792 28.1399C243.112 29.5399 242.086 31.4532 241.712 33.8799H260.262C259.889 31.4999 258.862 29.6099 257.182 28.2099C255.502 26.7632 253.449 26.0399 251.022 26.0399Z" fill="#090909"/>
<path d="M320.537 54.1799C319.463 54.9732 318.133 55.5799 316.547 55.9999C315.007 56.3732 313.373 56.5599 311.647 56.5599C307.167 56.5599 303.69 55.4166 301.217 53.1299C298.79 50.8433 297.577 47.4832 297.577 43.0499V27.5799H291.767V19.1799H297.577V10.0099H308.497V19.1799H317.877V27.5799H308.497V42.9099C308.497 44.4966 308.893 45.7332 309.687 46.6199C310.527 47.4599 311.693 47.8799 313.187 47.8799C314.913 47.8799 316.383 47.4132 317.597 46.4799L320.537 54.1799Z" fill="#090909"/>
<path d="M348.857 17.7799C353.523 17.7799 357.28 19.1799 360.127 21.9799C363.02 24.7799 364.467 28.9332 364.467 34.4399V55.9999H353.547V36.1199C353.547 33.1332 352.893 30.9166 351.587 29.4699C350.28 27.9766 348.39 27.2299 345.917 27.2299C343.163 27.2299 340.97 28.0932 339.337 29.8199C337.703 31.4999 336.887 34.0199 336.887 37.3799V55.9999H325.967V4.05991H336.887V22.2599C338.333 20.8132 340.083 19.7166 342.137 18.9699C344.19 18.1766 346.43 17.7799 348.857 17.7799Z" fill="#090909"/>
<path d="M410.965 37.3099C410.965 37.4499 410.895 38.4299 410.755 40.2499H382.265C382.779 42.5832 383.992 44.4266 385.905 45.7799C387.819 47.1332 390.199 47.8099 393.045 47.8099C395.005 47.8099 396.732 47.5299 398.225 46.9699C399.765 46.3633 401.189 45.4299 402.495 44.1699L408.305 50.4699C404.759 54.5299 399.579 56.5599 392.765 56.5599C388.519 56.5599 384.762 55.7433 381.495 54.1099C378.229 52.4299 375.709 50.1199 373.935 47.1799C372.162 44.2399 371.275 40.9032 371.275 37.1699C371.275 33.4832 372.139 30.1699 373.865 27.2299C375.639 24.2432 378.042 21.9332 381.075 20.2999C384.155 18.6199 387.585 17.7799 391.365 17.7799C395.052 17.7799 398.389 18.5732 401.375 20.1599C404.362 21.7466 406.695 24.0332 408.375 27.0199C410.102 29.9599 410.965 33.3899 410.965 37.3099ZM391.435 26.0399C388.962 26.0399 386.885 26.7399 385.205 28.1399C383.525 29.5399 382.499 31.4532 382.125 33.8799H400.675C400.302 31.4999 399.275 29.6099 397.595 28.2099C395.915 26.7632 393.862 26.0399 391.435 26.0399Z" fill="#090909"/>
<path d="M482.02 55.9999L481.95 26.5999L467.53 50.8199H462.42L448.07 27.2299V55.9999H437.43V6.99991H446.81L465.15 37.4499L483.21 6.99991H492.52L492.66 55.9999H482.02Z" fill="#090909"/>
<path d="M520.735 56.5599C516.768 56.5599 513.198 55.7433 510.025 54.1099C506.898 52.4299 504.448 50.1199 502.675 47.1799C500.902 44.2399 500.015 40.9032 500.015 37.1699C500.015 33.4366 500.902 30.0999 502.675 27.1599C504.448 24.2199 506.898 21.9332 510.025 20.2999C513.198 18.6199 516.768 17.7799 520.735 17.7799C524.702 17.7799 528.248 18.6199 531.375 20.2999C534.502 21.9332 536.952 24.2199 538.725 27.1599C540.498 30.0999 541.385 33.4366 541.385 37.1699C541.385 40.9032 540.498 44.2399 538.725 47.1799C536.952 50.1199 534.502 52.4299 531.375 54.1099C528.248 55.7433 524.702 56.5599 520.735 56.5599ZM520.735 47.5999C523.535 47.5999 525.822 46.6666 527.595 44.7999C529.415 42.8866 530.325 40.3432 530.325 37.1699C530.325 33.9966 529.415 31.4766 527.595 29.6099C525.822 27.6966 523.535 26.7399 520.735 26.7399C517.935 26.7399 515.625 27.6966 513.805 29.6099C511.985 31.4766 511.075 33.9966 511.075 37.1699C511.075 40.3432 511.985 42.8866 513.805 44.7999C515.625 46.6666 517.935 47.5999 520.735 47.5999Z" fill="#090909"/>
<path d="M570.874 17.7799C575.541 17.7799 579.298 19.1799 582.144 21.9799C585.038 24.7799 586.484 28.9332 586.484 34.4399V55.9999H575.564V36.1199C575.564 33.1332 574.911 30.9166 573.604 29.4699C572.298 27.9766 570.408 27.2299 567.934 27.2299C565.181 27.2299 562.988 28.0932 561.354 29.8199C559.721 31.4999 558.904 34.0199 558.904 37.3799V55.9999H547.984V18.3399H558.414V22.7499C559.861 21.1632 561.658 19.9499 563.804 19.1099C565.951 18.2232 568.308 17.7799 570.874 17.7799Z" fill="#090909"/>
<path d="M611.853 41.2299L606.603 46.4099V55.9999H595.683V4.05991H606.603V33.4599L622.563 18.3399H635.583L619.903 34.2999L636.983 55.9999H623.753L611.853 41.2299Z" fill="#090909"/>
<path d="M676.443 37.3099C676.443 37.4499 676.373 38.4299 676.233 40.2499H647.743C648.256 42.5832 649.47 44.4266 651.383 45.7799C653.296 47.1332 655.676 47.8099 658.523 47.8099C660.483 47.8099 662.21 47.5299 663.703 46.9699C665.243 46.3633 666.666 45.4299 667.973 44.1699L673.783 50.4699C670.236 54.5299 665.056 56.5599 658.243 56.5599C653.996 56.5599 650.24 55.7433 646.973 54.1099C643.706 52.4299 641.186 50.1199 639.413 47.1799C637.64 44.2399 636.753 40.9032 636.753 37.1699C636.753 33.4832 637.616 30.1699 639.343 27.2299C641.116 24.2432 643.52 21.9332 646.553 20.2999C649.633 18.6199 653.063 17.7799 656.843 17.7799C660.53 17.7799 663.866 18.5732 666.853 20.1599C669.84 21.7466 672.173 24.0332 673.853 27.0199C675.58 29.9599 676.443 33.3899 676.443 37.3099ZM656.913 26.0399C654.44 26.0399 652.363 26.7399 650.683 28.1399C649.003 29.5399 647.976 31.4532 647.603 33.8799H666.153C665.78 31.4999 664.753 29.6099 663.073 28.2099C661.393 26.7632 659.34 26.0399 656.913 26.0399Z" fill="#090909"/>
<path d="M719.709 18.3399L702.699 58.3099C700.973 62.6499 698.826 65.7066 696.259 67.4799C693.739 69.2533 690.683 70.1399 687.089 70.1399C685.129 70.1399 683.193 69.8366 681.279 69.2299C679.366 68.6233 677.803 67.7832 676.589 66.7099L680.579 58.9399C681.419 59.6866 682.376 60.2699 683.449 60.6899C684.569 61.1099 685.666 61.3199 686.74 61.3199C688.233 61.3199 689.446 60.9466 690.38 60.1999C691.313 59.4999 692.153 58.3099 692.899 56.6299L693.039 56.2799L676.729 18.3399H688L698.569 43.8899L709.209 18.3399H719.709Z" fill="#090909"/>
</svg>
