<svg width="289" height="215" viewBox="0 0 289 215" fill="none" xmlns="http://www.w3.org/2000/svg">
<path d="M5.81006 6.99991H28.0701C33.3901 6.99991 38.0801 8.02658 42.1401 10.0799C46.2467 12.0866 49.4201 14.9332 51.6601 18.6199C53.9467 22.3066 55.0901 26.5999 55.0901 31.4999C55.0901 36.3999 53.9467 40.6933 51.6601 44.3799C49.4201 48.0666 46.2467 50.9366 42.1401 52.9899C38.0801 54.9966 33.3901 55.9999 28.0701 55.9999H5.81006V6.99991ZM27.5101 46.6899C32.4101 46.6899 36.3067 45.3366 39.2001 42.6299C42.1401 39.8766 43.6101 36.1666 43.6101 31.4999C43.6101 26.8332 42.1401 23.1466 39.2001 20.4399C36.3067 17.6866 32.4101 16.3099 27.5101 16.3099H17.1501V46.6899H27.5101Z" fill="black"/>
<path d="M99.0621 37.3099C99.0621 37.4499 98.9921 38.4299 98.8521 40.2499H70.3621C70.8754 42.5832 72.0888 44.4266 74.0021 45.7799C75.9154 47.1332 78.2954 47.8099 81.1421 47.8099C83.1021 47.8099 84.8288 47.5299 86.3221 46.9699C87.8621 46.3633 89.2854 45.4299 90.5921 44.1699L96.4021 50.4699C92.8554 54.5299 87.6754 56.5599 80.8621 56.5599C76.6154 56.5599 72.8588 55.7433 69.5921 54.1099C66.3254 52.4299 63.8054 50.1199 62.0321 47.1799C60.2588 44.2399 59.3721 40.9032 59.3721 37.1699C59.3721 33.4832 60.2354 30.1699 61.9621 27.2299C63.7354 24.2432 66.1388 21.9332 69.1721 20.2999C72.2521 18.6199 75.6821 17.7799 79.4621 17.7799C83.1488 17.7799 86.4854 18.5732 89.4721 20.1599C92.4588 21.7466 94.7921 24.0332 96.4721 27.0199C98.1988 29.9599 99.0621 33.3899 99.0621 37.3099ZM79.5321 26.0399C77.0588 26.0399 74.9821 26.7399 73.3021 28.1399C71.6221 29.5399 70.5954 31.4532 70.2221 33.8799H88.7721C88.3988 31.4999 87.3721 29.6099 85.6921 28.2099C84.0121 26.7632 81.9588 26.0399 79.5321 26.0399Z" fill="black"/>
<path d="M118.302 56.5599C115.176 56.5599 112.119 56.1866 109.132 55.4399C106.146 54.6466 103.766 53.6666 101.992 52.4999L105.632 44.6599C107.312 45.7332 109.342 46.6199 111.722 47.3199C114.102 47.9732 116.436 48.2999 118.722 48.2999C123.342 48.2999 125.652 47.1566 125.652 44.8699C125.652 43.7966 125.022 43.0266 123.762 42.5599C122.502 42.0933 120.566 41.6966 117.952 41.3699C114.872 40.9032 112.329 40.3666 110.322 39.7599C108.316 39.1532 106.566 38.0799 105.072 36.5399C103.626 34.9999 102.902 32.8066 102.902 29.9599C102.902 27.5799 103.579 25.4799 104.932 23.6599C106.332 21.7932 108.339 20.3466 110.952 19.3199C113.612 18.2932 116.739 17.7799 120.332 17.7799C122.992 17.7799 125.629 18.0832 128.242 18.6899C130.902 19.2499 133.096 20.0432 134.822 21.0699L131.182 28.8399C127.869 26.9732 124.252 26.0399 120.332 26.0399C117.999 26.0399 116.249 26.3666 115.082 27.0199C113.916 27.6732 113.332 28.5132 113.332 29.5399C113.332 30.7066 113.962 31.5232 115.222 31.9899C116.482 32.4566 118.489 32.8999 121.242 33.3199C124.322 33.8332 126.842 34.3932 128.802 34.9999C130.762 35.5599 132.466 36.6099 133.912 38.1499C135.359 39.6899 136.082 41.8366 136.082 44.5899C136.082 46.9232 135.382 48.9999 133.982 50.8199C132.582 52.6399 130.529 54.0632 127.822 55.0899C125.162 56.0699 121.989 56.5599 118.302 56.5599Z" fill="black"/>
<path d="M164.38 17.7799C167.88 17.7799 171.053 18.5966 173.9 20.2299C176.793 21.8166 179.056 24.0799 180.69 27.0199C182.323 29.9132 183.14 33.2966 183.14 37.1699C183.14 41.0432 182.323 44.4499 180.69 47.3899C179.056 50.2832 176.793 52.5466 173.9 54.1799C171.053 55.7666 167.88 56.5599 164.38 56.5599C159.573 56.5599 155.793 55.0432 153.04 52.0099V69.5799H142.12V18.3399H152.55V22.6799C155.256 19.4132 159.2 17.7799 164.38 17.7799ZM162.49 47.5999C165.29 47.5999 167.576 46.6666 169.35 44.7999C171.17 42.8866 172.08 40.3432 172.08 37.1699C172.08 33.9966 171.17 31.4766 169.35 29.6099C167.576 27.6966 165.29 26.7399 162.49 26.7399C159.69 26.7399 157.38 27.6966 155.56 29.6099C153.786 31.4766 152.9 33.9966 152.9 37.1699C152.9 40.3432 153.786 42.8866 155.56 44.7999C157.38 46.6666 159.69 47.5999 162.49 47.5999Z" fill="black"/>
<path d="M189.75 18.3399H200.67V55.9999H189.75V18.3399ZM195.21 13.0899C193.203 13.0899 191.57 12.5066 190.31 11.3399C189.05 10.1732 188.42 8.72658 188.42 6.99991C188.42 5.27325 189.05 3.82658 190.31 2.65991C191.57 1.49325 193.203 0.909912 195.21 0.909912C197.216 0.909912 198.85 1.46991 200.11 2.58992C201.37 3.70992 202 5.10991 202 6.78992C202 8.60991 201.37 10.1266 200.11 11.3399C198.85 12.5066 197.216 13.0899 195.21 13.0899Z" fill="black"/>
<path d="M234.395 54.1799C233.321 54.9732 231.991 55.5799 230.405 55.9999C228.865 56.3732 227.231 56.5599 225.505 56.5599C221.025 56.5599 217.548 55.4166 215.075 53.1299C212.648 50.8433 211.435 47.4832 211.435 43.0499V27.5799H205.625V19.1799H211.435V10.0099H222.355V19.1799H231.735V27.5799H222.355V42.9099C222.355 44.4966 222.751 45.7332 223.545 46.6199C224.385 47.4599 225.551 47.8799 227.045 47.8799C228.771 47.8799 230.241 47.4132 231.455 46.4799L234.395 54.1799Z" fill="black"/>
<path d="M275.552 37.3099C275.552 37.4499 275.482 38.4299 275.342 40.2499H246.852C247.366 42.5832 248.579 44.4266 250.492 45.7799C252.406 47.1332 254.786 47.8099 257.632 47.8099C259.592 47.8099 261.319 47.5299 262.812 46.9699C264.352 46.3633 265.776 45.4299 267.082 44.1699L272.892 50.4699C269.346 54.5299 264.166 56.5599 257.352 56.5599C253.106 56.5599 249.349 55.7433 246.082 54.1099C242.816 52.4299 240.296 50.1199 238.522 47.1799C236.749 44.2399 235.862 40.9032 235.862 37.1699C235.862 33.4832 236.726 30.1699 238.452 27.2299C240.226 24.2432 242.629 21.9332 245.662 20.2999C248.742 18.6199 252.172 17.7799 255.952 17.7799C259.639 17.7799 262.976 18.5732 265.962 20.1599C268.949 21.7466 271.282 24.0332 272.962 27.0199C274.689 29.9599 275.552 33.3899 275.552 37.3099ZM256.022 26.0399C253.549 26.0399 251.472 26.7399 249.792 28.1399C248.112 29.5399 247.086 31.4532 246.712 33.8799H265.262C264.889 31.4999 263.862 29.6099 262.182 28.2099C260.502 26.7632 258.449 26.0399 256.022 26.0399Z" fill="black"/>
<path d="M29.3301 126.18C28.2567 126.973 26.9267 127.58 25.3401 128C23.8001 128.373 22.1667 128.56 20.4401 128.56C15.9601 128.56 12.4834 127.417 10.0101 125.13C7.58339 122.843 6.37006 119.483 6.37006 115.05V99.5799H0.560059V91.1799H6.37006V82.0099H17.2901V91.1799H26.6701V99.5799H17.2901V114.91C17.2901 116.497 17.6867 117.733 18.4801 118.62C19.3201 119.46 20.4867 119.88 21.9801 119.88C23.7067 119.88 25.1767 119.413 26.3901 118.48L29.3301 126.18Z" fill="black"/>
<path d="M57.65 89.7799C62.3166 89.7799 66.0733 91.1799 68.92 93.9799C71.8133 96.7799 73.26 100.933 73.26 106.44V128H62.34V108.12C62.34 105.133 61.6866 102.917 60.38 101.47C59.0733 99.9766 57.1833 99.2299 54.71 99.2299C51.9566 99.2299 49.7633 100.093 48.13 101.82C46.4966 103.5 45.68 106.02 45.68 109.38V128H34.76V76.0599H45.68V94.2599C47.1266 92.8133 48.8766 91.7166 50.93 90.9699C52.9833 90.1766 55.2233 89.7799 57.65 89.7799Z" fill="black"/>
<path d="M119.759 109.31C119.759 109.45 119.689 110.43 119.549 112.25H91.0586C91.5719 114.583 92.7852 116.427 94.6986 117.78C96.6119 119.133 98.9919 119.81 101.839 119.81C103.799 119.81 105.525 119.53 107.019 118.97C108.559 118.363 109.982 117.43 111.289 116.17L117.099 122.47C113.552 126.53 108.372 128.56 101.559 128.56C97.3119 128.56 93.5552 127.743 90.2886 126.11C87.0219 124.43 84.5019 122.12 82.7286 119.18C80.9552 116.24 80.0686 112.903 80.0686 109.17C80.0686 105.483 80.9319 102.17 82.6586 99.2299C84.4319 96.2432 86.8352 93.9332 89.8686 92.2999C92.9486 90.6199 96.3786 89.7799 100.159 89.7799C103.845 89.7799 107.182 90.5732 110.169 92.1599C113.155 93.7466 115.489 96.0332 117.169 99.0199C118.895 101.96 119.759 105.39 119.759 109.31ZM100.229 98.0399C97.7552 98.0399 95.6786 98.7399 93.9986 100.14C92.3186 101.54 91.2919 103.453 90.9186 105.88H109.469C109.095 103.5 108.069 101.61 106.389 100.21C104.709 98.7632 102.655 98.0399 100.229 98.0399Z" fill="black"/>
<path d="M50.4001 200L50.3301 170.6L35.9101 194.82H30.8001L16.4501 171.23V200H5.81006V151H15.1901L33.5301 181.45L51.5901 151H60.9001L61.0401 200H50.4001Z" fill="black"/>
<path d="M89.1155 200.56C85.1489 200.56 81.5789 199.743 78.4055 198.11C75.2789 196.43 72.8289 194.12 71.0555 191.18C69.2822 188.24 68.3955 184.903 68.3955 181.17C68.3955 177.437 69.2822 174.1 71.0555 171.16C72.8289 168.22 75.2789 165.933 78.4055 164.3C81.5789 162.62 85.1489 161.78 89.1155 161.78C93.0822 161.78 96.6289 162.62 99.7555 164.3C102.882 165.933 105.332 168.22 107.106 171.16C108.879 174.1 109.766 177.437 109.766 181.17C109.766 184.903 108.879 188.24 107.106 191.18C105.332 194.12 102.882 196.43 99.7555 198.11C96.6289 199.743 93.0822 200.56 89.1155 200.56ZM89.1155 191.6C91.9155 191.6 94.2022 190.667 95.9755 188.8C97.7955 186.887 98.7055 184.343 98.7055 181.17C98.7055 177.997 97.7955 175.477 95.9755 173.61C94.2022 171.697 91.9155 170.74 89.1155 170.74C86.3155 170.74 84.0055 171.697 82.1855 173.61C80.3655 175.477 79.4555 177.997 79.4555 181.17C79.4555 184.343 80.3655 186.887 82.1855 188.8C84.0055 190.667 86.3155 191.6 89.1155 191.6Z" fill="black"/>
<path d="M139.255 161.78C143.921 161.78 147.678 163.18 150.525 165.98C153.418 168.78 154.865 172.933 154.865 178.44V200H143.945V180.12C143.945 177.133 143.291 174.917 141.985 173.47C140.678 171.977 138.788 171.23 136.315 171.23C133.561 171.23 131.368 172.093 129.735 173.82C128.101 175.5 127.285 178.02 127.285 181.38V200H116.365V162.34H126.795V166.75C128.241 165.163 130.038 163.95 132.185 163.11C134.331 162.223 136.688 161.78 139.255 161.78Z" fill="black"/>
<path d="M180.233 185.23L174.983 190.41V200H164.063V148.06H174.983V177.46L190.943 162.34H203.963L188.283 178.3L205.363 200H192.133L180.233 185.23Z" fill="black"/>
<path d="M244.823 181.31C244.823 181.45 244.753 182.43 244.613 184.25H216.123C216.637 186.583 217.85 188.427 219.763 189.78C221.677 191.133 224.057 191.81 226.903 191.81C228.863 191.81 230.59 191.53 232.083 190.97C233.623 190.363 235.047 189.43 236.353 188.17L242.163 194.47C238.617 198.53 233.437 200.56 226.623 200.56C222.377 200.56 218.62 199.743 215.353 198.11C212.087 196.43 209.567 194.12 207.793 191.18C206.02 188.24 205.133 184.903 205.133 181.17C205.133 177.483 205.997 174.17 207.723 171.23C209.497 168.243 211.9 165.933 214.933 164.3C218.013 162.62 221.443 161.78 225.223 161.78C228.91 161.78 232.247 162.573 235.233 164.16C238.22 165.747 240.553 168.033 242.233 171.02C243.96 173.96 244.823 177.39 244.823 181.31ZM225.293 170.04C222.82 170.04 220.743 170.74 219.063 172.14C217.383 173.54 216.357 175.453 215.983 177.88H234.533C234.16 175.5 233.133 173.61 231.453 172.21C229.773 170.763 227.72 170.04 225.293 170.04Z" fill="black"/>
<path d="M288.09 162.34L271.08 202.31C269.353 206.65 267.207 209.707 264.64 211.48C262.12 213.253 259.063 214.14 255.47 214.14C253.51 214.14 251.573 213.837 249.66 213.23C247.747 212.623 246.183 211.783 244.97 210.71L248.96 202.94C249.8 203.687 250.757 204.27 251.83 204.69C252.95 205.11 254.047 205.32 255.12 205.32C256.613 205.32 257.827 204.947 258.76 204.2C259.693 203.5 260.533 202.31 261.28 200.63L261.42 200.28L245.11 162.34H256.38L266.95 187.89L277.59 162.34H288.09Z" fill="black"/>
</svg>
